<?xml version="1.0" standalone="no"?>
<!DOCTYPE svg PUBLIC "-//W3C//DTD SVG 20010904//EN"
 "http://www.w3.org/TR/2001/REC-SVG-20010904/DTD/svg10.dtd">
<svg version="1.0" xmlns="http://www.w3.org/2000/svg"
 width="6000.000000pt" height="6000.000000pt" viewBox="0 0 6000.000000 6000.000000"
 preserveAspectRatio="xMidYMid meet">

<g transform="translate(0.000000,6000.000000) scale(0.100000,-0.100000)"
fill="#000000" stroke="none">
<path d="M29335 51259 c-2716 -83 -5394 -686 -7875 -1774 -1998 -876 -3890
-2086 -5530 -3534 -615 -544 -1337 -1266 -1881 -1881 -1118 -1266 -2107 -2702
-2896 -4205 -1780 -3389 -2607 -7224 -2388 -11070 63 -1106 186 -2031 427
-3223 l22 -113 -52 -207 c-116 -459 -162 -805 -162 -1213 -1 -1185 502 -2196
1484 -2983 65 -53 165 -128 221 -167 l102 -71 112 -227 c680 -1369 1505 -2666
2447 -3846 537 -672 951 -1133 1598 -1781 521 -521 844 -819 1330 -1228 4167
-3511 9467 -5278 14911 -4971 3211 181 6299 1072 9095 2622 287 160 620 355
620 364 0 11 -132 115 -228 179 -229 153 -550 280 -902 356 -324 71 -535 99
-1014 133 -154 12 -281 23 -284 26 -3 3 10 5 29 5 19 0 68 3 109 5 71 5 132
10 450 36 74 5 180 17 235 25 55 8 134 19 175 25 106 14 309 58 480 102 201
53 478 164 605 242 22 13 54 32 70 41 215 120 522 434 627 639 28 55 111 220
124 246 32 63 119 320 150 442 7 31 21 85 30 120 9 34 19 89 24 122 4 33 17
109 29 169 12 60 28 172 36 250 8 77 21 206 29 286 9 80 18 213 20 295 2 83 5
152 6 155 6 16 30 -162 35 -260 3 -63 10 -142 15 -175 5 -33 12 -96 14 -140 6
-94 22 -237 36 -315 5 -30 19 -111 30 -180 32 -200 48 -267 123 -515 66 -218
207 -504 335 -675 112 -152 390 -410 441 -410 22 0 628 478 956 755 488 412
810 709 1331 1229 647 648 1061 1109 1598 1781 2317 2902 3827 6347 4390
10020 340 2212 324 4541 -45 6750 -102 615 -206 1108 -365 1738 -52 204 -84
349 -81 365 3 15 33 106 66 202 377 1095 390 2118 38 3010 -393 995 -1248
1808 -2507 2383 l-75 34 -84 134 c-562 890 -1309 1885 -2020 2689 -550 621
-1267 1337 -1881 1881 -2295 2027 -5039 3554 -7949 4424 -2201 657 -4480 954
-6786 884z m12105 -4025 c10 -110 22 -226 25 -259 13 -131 70 -432 91 -484 8
-18 14 -40 14 -47 0 -22 68 -191 112 -279 114 -225 291 -405 518 -527 256
-137 674 -231 1138 -255 67 -3 125 -9 127 -13 2 -4 -50 -10 -115 -14 -66 -4
-155 -11 -198 -16 -42 -5 -104 -12 -137 -15 -165 -17 -403 -67 -555 -116 -456
-147 -751 -452 -891 -919 -61 -204 -110 -511 -135 -850 -10 -136 -22 -165 -23
-55 -1 50 -8 162 -17 250 -60 613 -196 987 -454 1245 -217 219 -507 345 -965
424 -49 9 -112 18 -140 21 -243 24 -367 35 -419 35 -43 0 -57 3 -46 10 8 5 45
10 83 10 95 0 430 36 567 60 479 85 792 245 1006 512 30 37 54 69 54 72 0 3
13 24 29 48 125 186 241 570 271 900 5 57 14 141 20 188 5 47 10 130 10 184 0
55 2 97 5 94 3 -3 14 -95 25 -204z m-26436 -6399 c29 -287 75 -468 162 -635
169 -326 471 -482 1038 -535 88 -8 184 -16 215 -16 31 -1 -2 -6 -74 -10 -352
-24 -653 -91 -825 -185 -115 -63 -228 -164 -298 -267 -77 -111 -145 -284 -176
-448 -9 -46 -21 -106 -26 -134 -5 -27 -17 -131 -25 -229 -9 -99 -18 -182 -20
-185 -3 -2 -5 27 -5 65 0 81 -25 333 -39 395 -5 24 -15 71 -21 104 -27 141
-97 317 -168 424 -86 130 -236 251 -396 319 -162 68 -440 121 -736 141 -78 5
-102 9 -65 10 78 2 331 27 418 41 437 70 701 238 845 538 89 185 157 518 163
807 l2 70 8 -60 c5 -33 15 -127 23 -210z m12226 19 c465 -78 885 -398 1085
-828 96 -206 138 -398 138 -631 0 -308 -81 -574 -250 -829 -88 -132 -265 -310
-392 -395 -474 -315 -1064 -342 -1556 -70 -129 71 -215 138 -335 258 -166 168
-278 349 -349 567 -58 178 -74 282 -74 469 0 390 136 735 403 1019 249 264
577 421 965 460 71 7 267 -4 365 -20z m-5225 -2840 c540 -92 996 -480 1168
-994 108 -321 110 -650 6 -965 -191 -574 -695 -970 -1305 -1025 -540 -49
-1078 213 -1381 672 -294 447 -330 1010 -93 1493 261 535 816 864 1410 838 63
-3 151 -11 195 -19z m3828 -7000 c99 -21 235 -74 329 -130 113 -67 275 -229
342 -342 103 -174 149 -339 149 -542 0 -203 -46 -368 -149 -542 -67 -113 -229
-275 -342 -342 -174 -103 -339 -149 -542 -149 -203 0 -368 46 -542 149 -113
67 -275 229 -342 342 -103 174 -149 339 -149 542 0 203 46 369 149 542 64 107
221 267 326 332 235 145 510 195 771 140z m52 -8490 c-24 -9 -640 -120 -970
-174 -2048 -336 -3873 -440 -5505 -314 -257 20 -642 62 -651 72 -28 31 -279
406 -279 417 0 3 1668 5 3708 4 2039 0 3703 -2 3697 -5z m9338 -64 c569 -99
1045 -459 1296 -980 138 -287 198 -596 172 -901 -46 -550 -316 -1019 -767
-1335 -99 -70 -330 -183 -454 -224 -753 -244 -1587 44 -2025 701 -600 900
-267 2122 705 2588 275 131 527 184 838 174 67 -2 173 -12 235 -23z m-4031
-750 c32 -47 89 -148 127 -225 136 -275 191 -513 191 -820 0 -361 -92 -685
-283 -990 -140 -225 -360 -445 -585 -584 -221 -137 -455 -224 -725 -268 -94
-16 -400 -18 -3986 -20 l-3883 -3 -127 92 c-178 130 -311 232 -505 388 -246
197 -223 176 -201 183 11 3 61 8 110 12 50 3 104 10 120 15 17 5 111 18 210
29 179 21 293 36 640 86 368 53 420 61 435 67 8 3 83 16 165 28 219 31 368 56
385 62 8 4 69 14 135 23 66 9 123 19 128 22 4 2 58 13 120 23 245 41 343 59
357 64 8 3 65 15 125 26 146 25 315 58 340 65 11 3 65 14 120 25 55 11 143 28
195 39 52 11 149 32 215 45 66 14 161 34 210 45 50 11 137 30 195 41 58 12
112 24 120 27 8 4 51 14 95 24 44 10 130 29 190 43 61 14 144 32 185 41 41 9
84 20 95 25 11 5 58 16 105 25 47 9 94 20 105 25 11 5 52 16 90 24 89 19 308
73 530 131 55 14 129 32 165 41 36 8 74 18 85 23 11 6 49 16 85 25 112 25 234
57 255 66 11 5 49 16 85 24 119 28 225 57 245 66 11 5 47 16 80 24 61 15 186
50 310 85 39 12 106 30 150 41 44 12 89 25 100 30 11 5 45 16 75 24 152 41
206 57 220 65 9 5 43 14 75 21 33 8 65 17 71 21 6 5 42 16 80 25 38 8 73 19
79 23 5 5 35 14 65 21 30 7 60 16 65 20 6 4 44 15 85 25 41 10 80 21 85 25 6
4 34 13 64 20 30 7 66 19 80 26 14 8 31 14 38 14 13 0 196 56 228 70 11 5 74
25 140 45 66 20 129 40 140 45 11 4 74 24 140 45 66 20 129 41 140 46 11 5 43
16 70 24 65 19 174 55 200 66 11 5 70 25 130 44 61 20 119 40 130 45 11 5 38
14 60 20 22 7 54 18 70 25 91 39 98 36 167 -65z"/>
<path d="M19008 22453 c7 -3 16 -2 19 1 4 3 -2 6 -13 5 -11 0 -14 -3 -6 -6z"/>
<path d="M22108 22433 c7 -3 16 -2 19 1 4 3 -2 6 -13 5 -11 0 -14 -3 -6 -6z"/>
<path d="M19398 22423 c7 -3 16 -2 19 1 4 3 -2 6 -13 5 -11 0 -14 -3 -6 -6z"/>
<path d="M21938 22423 c7 -3 16 -2 19 1 4 3 -2 6 -13 5 -11 0 -14 -3 -6 -6z"/>
<path d="M19558 22413 c7 -3 16 -2 19 1 4 3 -2 6 -13 5 -11 0 -14 -3 -6 -6z"/>
<path d="M21758 22413 c7 -3 16 -2 19 1 4 3 -2 6 -13 5 -11 0 -14 -3 -6 -6z"/>
<path d="M19758 22403 c6 -2 18 -2 25 0 6 3 1 5 -13 5 -14 0 -19 -2 -12 -5z"/>
<path d="M21528 22403 c6 -2 18 -2 25 0 6 3 1 5 -13 5 -14 0 -19 -2 -12 -5z"/>
<path d="M20023 22393 c9 -2 25 -2 35 0 9 3 1 5 -18 5 -19 0 -27 -2 -17 -5z"/>
<path d="M21233 22393 c9 -2 25 -2 35 0 9 3 1 5 -18 5 -19 0 -27 -2 -17 -5z"/>
</g>
</svg>
